<svg width="20" height="18" viewBox="0 0 20 18" fill="none" xmlns="http://www.w3.org/2000/svg">
<path fill-rule="evenodd" clip-rule="evenodd" d="M5.4249 0.0224969C5.92715 0.00999861 6.75123 0.174976 7.25349 0.387446C7.75574 0.599917 8.57982 1.18983 9.99637 2.62463L10.9107 1.69976C11.4129 1.18983 12.237 0.599917 12.7393 0.387446C13.2415 0.174976 14.0924 0 14.6288 0C15.1652 0 15.9064 0.119983 16.2745 0.264963C16.6427 0.409943 17.3644 0.829885 17.8764 1.20233C18.4274 1.59978 19.0516 2.38467 19.4026 3.12457C19.7635 3.88196 20 4.81933 20 5.49924C20.0024 6.26913 19.7537 7.13651 19.2149 8.24885C18.5688 9.57617 17.6862 10.6185 14.3947 13.9381C12.1761 16.1728 10.2256 18.0025 10.0573 18C9.8891 17.9975 8.40915 16.6977 6.76586 15.1104C5.12257 13.5231 3.19158 11.5259 2.47233 10.6735C1.75309 9.82113 0.90462 8.56131 0.585226 7.87391C0.246327 7.14401 0.00251522 6.15664 7.70988e-05 5.49924C-0.00479914 4.80683 0.221946 3.89446 0.590102 3.12457C0.933877 2.39717 1.5751 1.58728 2.11637 1.18733C2.62837 0.809887 3.37687 0.399944 3.77916 0.272462C4.18145 0.14748 4.92264 0.0324955 5.4249 0.0224969ZM2.17 3.28204C1.86524 3.74698 1.56535 4.57436 1.5044 5.12429C1.41906 5.88918 1.55804 6.4491 2.09198 7.49896C2.56742 8.43633 3.89863 10.0086 6.27092 12.4358C8.18485 14.3955 9.86228 15.9978 9.99637 15.9978C10.1305 15.9978 11.764 14.4505 13.6243 12.5608C15.7016 10.451 17.301 8.59381 17.7667 7.74892C18.2177 6.93154 18.5249 6.01916 18.5225 5.49924C18.5225 5.0193 18.2762 4.17442 17.9763 3.6245C17.6131 2.96209 17.062 2.43466 16.3355 2.05971C15.7308 1.74976 14.9628 1.49979 14.6288 1.50229C14.2923 1.50729 13.5536 1.73226 12.9831 2.00472C12.3882 2.28968 11.6616 2.91959 11.2764 3.48702C10.9082 4.02944 10.4694 4.53687 10.3011 4.61186C10.1329 4.68685 9.85984 4.68685 9.69161 4.61186C9.52338 4.53687 9.08452 4.02944 8.71636 3.48702C8.33114 2.91959 7.60458 2.28968 7.00967 2.00472C6.43915 1.73226 5.69797 1.50979 5.36394 1.50979C5.02748 1.50979 4.29848 1.71976 3.74015 1.97723C3.18182 2.23219 2.47477 2.81961 2.17 3.28204Z" fill="#C13131"/>
</svg>
