<svg width="26" height="22" viewBox="0 0 26 22" fill="none" xmlns="http://www.w3.org/2000/svg">
<path d="M8.13414 16.4C9.35555 16.4 10.3627 17.3162 10.5101 18.5H24.9006C25.066 18.5 25.2 18.6343 25.2 18.8C25.2 18.9657 25.066 19.1 24.9006 19.1H10.5101C10.3627 20.2839 9.35555 21.2 8.13414 21.2C6.81131 21.2 5.73893 20.1255 5.73893 18.8C5.73893 17.4745 6.81131 16.4 8.13414 16.4ZM3.94253 18.5C4.10788 18.5 4.24193 18.6343 4.24193 18.8C4.24193 18.9657 4.10788 19.1 3.94253 19.1H0.649713C0.484028 19.1 0.349713 18.9657 0.349713 18.8C0.349713 18.6343 0.484027 18.5 0.649713 18.5H3.94253ZM18.6132 8.3C19.8346 8.3 20.8417 9.21615 20.9891 10.4H24.9006C25.066 10.4 25.2 10.5343 25.2 10.7C25.2 10.8657 25.066 11 24.9006 11H20.9891C20.8417 12.1838 19.8346 13.1 18.6132 13.1C17.2903 13.1 16.218 12.0255 16.218 10.7C16.218 9.37452 17.2903 8.3 18.6132 8.3ZM14.8707 10.4C15.036 10.4 15.1701 10.5343 15.1701 10.7C15.1701 10.8657 15.036 11 14.8707 11H0.500011C0.334326 11 0.200012 10.8657 0.200012 10.7C0.200012 10.5343 0.334327 10.4 0.500012 10.4H14.8707ZM12.6252 0.200001C13.8466 0.200001 14.8537 1.11615 15.0011 2.3H24.7509C24.9163 2.3 25.0503 2.43432 25.0503 2.6C25.0503 2.76569 24.9163 2.9 24.7509 2.9H15.0011C14.8537 4.08385 13.8466 5 12.6252 5C11.3023 5 10.23 3.92548 10.23 2.6C10.23 1.27452 11.3023 0.200001 12.6252 0.200001ZM8.73295 2.3C8.8983 2.3 9.03235 2.43432 9.03235 2.6C9.03235 2.76569 8.8983 2.9 8.73295 2.9H0.649713C0.484028 2.9 0.349713 2.76569 0.349713 2.6C0.349713 2.43432 0.484027 2.3 0.649713 2.3H8.73295ZM6.33774 18.8C6.33774 19.7941 7.14202 20.6 8.13414 20.6C9.12627 20.6 9.93055 19.7941 9.93055 18.8C9.93055 17.8059 9.12627 17 8.13414 17C7.14202 17 6.33774 17.8059 6.33774 18.8ZM16.8168 10.7C16.8168 11.6941 17.6211 12.5 18.6132 12.5C19.6053 12.5 20.4096 11.6941 20.4096 10.7C20.4096 9.70589 19.6053 8.9 18.6132 8.9C17.6211 8.9 16.8168 9.70589 16.8168 10.7ZM10.8288 2.6C10.8288 3.59411 11.633 4.4 12.6252 4.4C13.6173 4.4 14.4216 3.59411 14.4216 2.6C14.4216 1.60589 13.6173 0.800001 12.6252 0.800001C11.633 0.800001 10.8288 1.60589 10.8288 2.6Z" fill="#787878" stroke="#787878" stroke-width="0.4"/>
</svg>
