<svg width="25" height="25" viewBox="0 0 25 25" fill="none" xmlns="http://www.w3.org/2000/svg">
<path d="M19.112 10.0589C19.112 5.05908 15.0588 1.00589 10.0589 1.00589C5.05908 1.00589 1.00589 5.05908 1.00589 10.0589C1.00589 15.0588 5.05908 19.112 10.0589 19.112C15.0588 19.112 19.112 15.0588 19.112 10.0589ZM20.1179 10.0589C20.1179 12.6557 19.1331 15.0219 17.5177 16.8065L25 24.2888L24.2888 25L16.8065 17.5177C15.0219 19.1331 12.6557 20.1179 10.0589 20.1179C4.50354 20.1179 0 15.6143 0 10.0589C0 4.50354 4.50354 0 10.0589 0C15.6143 0 20.1179 4.50354 20.1179 10.0589Z" fill="#787878"/>
</svg>
